<svg data-v-423bf9ae="" xmlns="http://www.w3.org/2000/svg" viewBox="0 0 168.49639764839372 163" class="iconAbove"><!----><!----><!----><g data-v-423bf9ae="" id="90a88f84-a7e5-41c2-a9ca-6048d0e05997" fill="white" transform="matrix(6.691675662994385,0,0,6.691675662994385,-0.5353317260742188,76.03254699707031)"><path d="M0.08 4.98L0.08 4.03L6.93 4.03L6.93 4.98L4.06 4.98L4.06 12.84L2.95 12.84L2.95 4.98L0.08 4.98ZM9.69 12.10L9.69 12.10L9.69 12.10Q11.07 12.10 11.27 10.88L11.27 10.88L12.40 10.88L12.40 10.88Q12.25 11.89 11.52 12.44L11.52 12.44L11.52 12.44Q10.78 12.99 9.69 12.99L9.69 12.99L9.69 12.99Q8.34 12.99 7.50 12.03L7.50 12.03L7.50 12.03Q6.66 11.07 6.66 9.48L6.66 9.48L6.66 9.48Q6.66 7.88 7.51 6.93L7.51 6.93L7.51 6.93Q8.36 5.98 9.77 5.98L9.77 5.98L9.77 5.98Q11.17 5.98 11.87 7.07L11.87 7.07L11.87 7.07Q12.56 8.16 12.35 9.73L12.35 9.73L7.77 9.73L7.77 9.73Q7.77 10.77 8.27 11.43L8.27 11.43L8.27 11.43Q8.78 12.10 9.69 12.10ZM10.50 7.03L10.50 7.03L10.50 7.03Q10.18 6.86 9.72 6.86L9.72 6.86L9.72 6.86Q8.86 6.86 8.37 7.44L8.37 7.44L8.37 7.44Q7.87 8.02 7.78 8.89L7.78 8.89L11.35 8.89L11.35 8.89Q11.35 7.49 10.50 7.03ZM17.42 9.49L19.96 12.84L18.62 12.84L16.70 10.30L14.88 12.84L13.54 12.84L16.07 9.49L13.54 6.13L14.88 6.13L16.80 8.65L18.63 6.13L19.98 6.13L17.42 9.49ZM25.10 11.86L25.26 12.64L25.26 12.64Q24.05 13.20 23.06 12.88L23.06 12.88L23.06 12.88Q22.34 12.66 22.05 11.94L22.05 11.94L22.05 11.94Q21.90 11.59 21.90 11.10L21.90 11.10L21.90 6.99L20.82 6.99L20.82 6.15L21.90 6.15L21.90 4.28L22.99 4.28L22.99 6.15L25.09 6.15L25.09 6.99L22.99 6.99L22.99 11.09L22.99 11.09Q22.99 12.11 23.94 12.11L23.94 12.11L23.94 12.11Q24.46 12.11 25.10 11.86L25.10 11.86Z"></path></g><!----><g data-v-423bf9ae="" id="e6c6777f-bafb-4d9e-9bf1-a3e3a62e147b" transform="matrix(4.118051052093506,0,0,4.118051052093506,37.576412200927734,0.9999980926513672)" stroke="none" fill="white"><path d="M0 3.094S-.063 0 3.063 0s16.969.094 16.969.094 3 .031 3 3.031V13s.063 2.922-2.922 2.922L19 15.906v5.949l-4.458-6.043H3.083s-2.979.166-2.979-2.979S0 3.094 0 3.094zm8.183 4.552a1.75 1.75 0 1 0-3.5 0 1.75 1.75 0 1 0 3.5 0zm10.165 0a1.75 1.75 0 1 0-3.5 0 1.75 1.75 0 1 0 3.5 0zm-5.083 0a1.75 1.75 0 1 0-3.5 0 1.75 1.75 0 1 0 3.5 0z"></path></g><!----></svg>